<svg xmlns="http://www.w3.org/2000/svg" viewBox="0 0 32 32" width="32" height="32">
  <!-- Background circle with gradient -->
  <defs>
    <linearGradient id="bgGradient" x1="0%" y1="0%" x2="100%" y2="100%">
      <stop offset="0%" style="stop-color:#1e3a8a;stop-opacity:1" />
      <stop offset="100%" style="stop-color:#0f172a;stop-opacity:1" />
    </linearGradient>
    <linearGradient id="chartGradient" x1="0%" y1="0%" x2="100%" y2="100%">
      <stop offset="0%" style="stop-color:#10b981;stop-opacity:1" />
      <stop offset="100%" style="stop-color:#059669;stop-opacity:1" />
    </linearGradient>
  </defs>
  
  <!-- Main background -->
  <circle cx="16" cy="16" r="15" fill="url(#bgGradient)" stroke="#3b82f6" stroke-width="1"/>
  
  <!-- Dollar sign -->
  <g transform="translate(16,16)">
    <!-- Vertical line through $ -->
    <line x1="0" y1="-8" x2="0" y2="8" stroke="#10b981" stroke-width="2" stroke-linecap="round"/>
    
    <!-- S curve of dollar sign -->
    <path d="M-3,4 C-3,6 -1,7 1,7 C3,7 4,6 4,4 C4,2 2,1 0,1 C-2,1 -4,0 -4,-2 C-4,-4 -2,-5 0,-5 C2,-5 3,-4 3,-2" 
          stroke="#10b981" stroke-width="2.5" fill="none" stroke-linecap="round"/>
  </g>
  
  <!-- Chart bars (simplified) -->
  <rect x="23" y="20" width="1.5" height="4" fill="#10b981" opacity="0.6"/>
  <rect x="25.5" y="18" width="1.5" height="6" fill="#10b981" opacity="0.6"/>
  <rect x="28" y="21" width="1.5" height="3" fill="#10b981" opacity="0.6"/>
  
  <!-- Small trend line -->
  <path d="M4 24 L6 22 L8 23 L10 21" stroke="#10b981" stroke-width="1.2" fill="none" opacity="0.5"/>
  
  <!-- Accent dot -->
  <circle cx="6" cy="8" r="1.5" fill="#10b981" opacity="0.7"/>
</svg>